<?xml version="1.0" standalone="no"?>
<!DOCTYPE svg PUBLIC "-//W3C//DTD SVG 20010904//EN"
 "http://www.w3.org/TR/2001/REC-SVG-20010904/DTD/svg10.dtd">
<svg version="1.0" xmlns="http://www.w3.org/2000/svg"
 width="169.000000pt" height="186.000000pt" viewBox="0 0 169.000000 186.000000"
 preserveAspectRatio="xMidYMid meet">

<g transform="translate(0.000000,186.000000) scale(0.100000,-0.100000)"
fill="#000000" stroke="none">
<path d="M595 659 c-148 -139 -271 -255 -273 -260 -2 -5 199 -9 457 -9 282 0
461 4 461 9 0 6 -81 118 -180 251 -99 133 -180 245 -180 251 0 5 -3 9 -7 9 -5
0 -129 -113 -278 -251z"/>
<path d="M65 195 c0 -84 2 -95 18 -95 13 0 17 8 17 35 0 30 3 35 23 35 17 0
28 -10 40 -35 11 -23 24 -35 37 -35 18 0 18 3 8 28 -7 15 -18 35 -26 45 -13
15 -13 19 1 35 23 25 21 59 -2 72 -11 5 -41 10 -68 10 l-48 0 0 -95z m99 49
c9 -22 -11 -44 -40 -44 -20 0 -24 5 -24 30 0 26 3 30 29 30 17 0 31 -6 35 -16z"/>
<path d="M245 195 l0 -95 63 0 c45 0 62 4 62 13 0 10 -13 13 -42 13 -40 -1
-43 1 -46 27 -3 25 -1 27 32 27 25 0 36 4 36 15 0 10 -11 15 -35 15 -31 0 -35
3 -35 25 0 23 4 25 40 25 29 0 40 4 40 15 0 12 -13 15 -57 15 l-58 0 0 -95z"/>
<path d="M405 195 c0 -82 2 -95 17 -95 12 0 18 10 20 38 3 35 5 37 36 34 24
-2 32 1 32 12 0 12 -10 16 -35 16 -32 0 -35 2 -35 30 0 29 2 30 45 30 33 0 45
4 45 15 0 12 -14 15 -62 15 l-63 0 0 -95z"/>
<path d="M555 195 l0 -95 63 0 c45 0 62 4 62 13 0 10 -13 13 -42 13 -40 -1
-43 1 -46 27 -3 25 -1 27 32 27 25 0 36 4 36 15 0 10 -11 15 -35 15 -31 0 -35
3 -35 25 0 23 4 25 40 25 29 0 40 4 40 15 0 12 -13 15 -57 15 l-58 0 0 -95z"/>
<path d="M715 195 c0 -84 2 -95 18 -95 13 0 17 8 17 35 0 30 3 35 23 35 17 0
28 -10 40 -35 11 -23 24 -35 37 -35 18 0 18 3 8 28 -7 15 -18 35 -26 45 -13
15 -13 19 1 35 23 25 21 59 -2 72 -11 5 -41 10 -68 10 l-48 0 0 -95z m99 49
c9 -22 -11 -44 -40 -44 -20 0 -24 5 -24 30 0 26 3 30 29 30 17 0 31 -6 35 -16z"/>
<path d="M905 274 c-27 -28 -15 -66 30 -91 56 -31 54 -58 -3 -58 -33 0 -42 -4
-42 -17 0 -14 9 -18 43 -18 52 0 87 22 87 55 0 25 -34 65 -55 65 -16 0 -47 35
-38 43 3 4 24 7 45 7 27 0 38 4 38 15 0 21 -83 20 -105 -1z"/>
<path d="M1075 207 c-40 -109 -39 -107 -17 -107 13 0 22 9 26 25 5 21 12 25
45 25 33 0 40 -4 43 -22 2 -15 11 -24 27 -26 17 -3 22 0 19 10 -3 7 -17 50
-32 96 -25 75 -30 82 -54 82 -25 0 -30 -7 -57 -83z m70 6 c6 -31 5 -33 -20
-33 -21 0 -26 4 -21 16 3 9 9 27 12 41 8 30 19 20 29 -24z"/>
<path d="M1255 195 c0 -86 2 -95 19 -95 17 0 18 6 14 70 -3 39 -4 70 -3 70 1
0 22 -31 46 -70 27 -44 50 -70 61 -70 16 0 18 11 18 95 0 78 -3 95 -15 95 -12
0 -15 -14 -15 -67 l-1 -68 -42 67 c-29 47 -48 68 -62 68 -19 0 -20 -7 -20 -95z"/>
<path d="M1460 276 c0 -10 13 -16 41 -18 l40 -3 -38 -60 c-63 -97 -63 -95 17
-95 56 0 70 3 70 15 0 13 -7 15 -34 9 -56 -10 -59 2 -16 70 56 88 54 96 -20
96 -46 0 -60 -3 -60 -14z"/>
</g>
</svg>
